<?xml version="1.0" encoding="UTF-8" standalone="no"?>
<!-- Created with Inkscape (http://www.inkscape.org/) -->
<svg
   xmlns:dc="http://purl.org/dc/elements/1.1/"
   xmlns:cc="http://creativecommons.org/ns#"
   xmlns:rdf="http://www.w3.org/1999/02/22-rdf-syntax-ns#"
   xmlns:svg="http://www.w3.org/2000/svg"
   xmlns="http://www.w3.org/2000/svg"
   xmlns:sodipodi="http://sodipodi.sourceforge.net/DTD/sodipodi-0.dtd"
   xmlns:inkscape="http://www.inkscape.org/namespaces/inkscape"
   width="1052.3622"
   height="744.09448"
   id="svg2"
   sodipodi:version="0.32"
   inkscape:version="0.46"
   version="1.0"
   sodipodi:docname="barcode-world.svg"
   inkscape:output_extension="org.inkscape.output.svg.inkscape">
  <sodipodi:namedview
     id="base"
     pagecolor="#ffffff"
     bordercolor="#666666"
     borderopacity="1.0"
     gridtolerance="10000"
     guidetolerance="10"
     objecttolerance="10"
     inkscape:pageopacity="0.0"
     inkscape:pageshadow="2"
     inkscape:zoom="0.49497475"
     inkscape:cx="524.58475"
     inkscape:cy="429.98258"
     inkscape:document-units="px"
     inkscape:current-layer="layer1"
     showgrid="false"
     inkscape:window-width="1024"
     inkscape:window-height="712"
     inkscape:window-x="-4"
     inkscape:window-y="-4" />
  <defs
     id="defs4">
    <inkscape:perspective
       id="perspective10"
       inkscape:persp3d-origin="372.04724 : 350.78739 : 1"
       inkscape:vp_z="744.09448 : 526.18109 : 1"
       inkscape:vp_y="0 : 1000 : 0"
       inkscape:vp_x="0 : 526.18109 : 1"
       sodipodi:type="inkscape:persp3d" />
    <inkscape:perspective
       id="perspective2464"
       inkscape:persp3d-origin="372.04724 : 350.78739 : 1"
       inkscape:vp_z="744.09448 : 526.18109 : 1"
       inkscape:vp_y="0 : 1000 : 0"
       inkscape:vp_x="0 : 526.18109 : 1"
       sodipodi:type="inkscape:persp3d" />
  </defs>
  <metadata
     id="metadata7">
    <rdf:RDF>
      <cc:Work
         rdf:about="">
        <dc:format>image/svg+xml</dc:format>
        <dc:type
           rdf:resource="http://purl.org/dc/dcmitype/StillImage" />
      </cc:Work>
    </rdf:RDF>
  </metadata>
  <g
     id="layer1"
     inkscape:groupmode="layer"
     inkscape:label="Layer 1">
    <g
       id="g2659">
      <path
         d="M 228.70468,136.2133 L 235.47989,136.2133 L 235.47989,497.21156 L 228.70468,497.21156 L 228.70468,136.2133 zM 242.2551,136.2133 L 249.03031,136.2133 L 249.03031,497.21156 L 242.2551,497.21156 L 242.2551,136.2133 zM 255.80553,136.2133 L 276.13116,136.2133 L 276.13116,445.6404 L 255.80553,445.6404 L 255.80553,136.2133 zM 282.90637,136.2133 L 296.4568,136.2133 L 296.4568,445.6404 L 282.90637,445.6404 L 282.90637,136.2133 zM 316.78244,136.2133 L 323.55765,136.2133 L 323.55765,445.6404 L 316.78244,445.6404 L 316.78244,136.2133 zM 337.10806,136.2133 L 343.88327,136.2133 L 343.88327,445.6404 L 337.10806,445.6404 L 337.10806,136.2133 zM 350.65848,136.2133 L 357.43369,136.2133 L 357.43369,445.6404 L 350.65848,445.6404 L 350.65848,136.2133 zM 370.98413,136.2133 L 391.30976,136.2133 L 391.30976,445.6404 L 370.98413,445.6404 L 370.98413,136.2133 zM 411.63541,136.2133 L 425.18583,136.2133 L 425.18583,445.6404 L 411.63541,445.6404 L 411.63541,136.2133 zM 431.96103,136.2133 L 438.73624,136.2133 L 438.73624,445.6404 L 431.96103,445.6404 L 431.96103,136.2133 zM 445.51144,136.2133 L 452.28666,136.2133 L 452.28666,445.6404 L 445.51144,445.6404 L 445.51144,136.2133 zM 465.8371,136.2133 L 486.16273,136.2133 L 486.16273,445.6404 L 465.8371,445.6404 L 465.8371,136.2133 zM 506.48834,136.2133 L 520.03877,136.2133 L 520.03877,445.6404 L 506.48834,445.6404 L 506.48834,136.2133 zM 526.81396,136.2133 L 533.58918,136.2133 L 533.58918,445.6404 L 526.81396,445.6404 L 526.81396,136.2133 zM 540.36444,136.2133 L 547.13965,136.2133 L 547.13965,497.21156 L 540.36444,497.21156 L 540.36444,136.2133 zM 553.91486,136.2133 L 560.69007,136.2133 L 560.69007,497.21156 L 553.91486,497.21156 L 553.91486,136.2133 zM 567.46527,136.2133 L 587.7909,136.2133 L 587.7909,445.6404 L 567.46527,445.6404 L 567.46527,136.2133 zM 601.34131,136.2133 L 608.11652,136.2133 L 608.11652,445.6404 L 601.34131,445.6404 L 601.34131,136.2133 zM 614.89172,136.2133 L 635.21736,136.2133 L 635.21736,445.6404 L 614.89172,445.6404 L 614.89172,136.2133 zM 648.76782,136.2133 L 655.54303,136.2133 L 655.54303,445.6404 L 648.76782,445.6404 L 648.76782,136.2133 zM 662.31824,136.2133 L 682.64387,136.2133 L 682.64387,445.6404 L 662.31824,445.6404 L 662.31824,136.2133 zM 696.19427,136.2133 L 702.96949,136.2133 L 702.96949,445.6404 L 696.19427,445.6404 L 696.19427,136.2133 zM 709.74469,136.2133 L 730.07032,136.2133 L 730.07032,445.6404 L 709.74469,445.6404 L 709.74469,136.2133 zM 743.62079,136.2133 L 750.396,136.2133 L 750.396,445.6404 L 743.62079,445.6404 L 743.62079,136.2133 zM 757.1712,136.2133 L 777.49684,136.2133 L 777.49684,445.6404 L 757.1712,445.6404 L 757.1712,136.2133 zM 791.04724,136.2133 L 797.82245,136.2133 L 797.82245,445.6404 L 791.04724,445.6404 L 791.04724,136.2133 zM 804.59766,136.2133 L 818.14808,136.2133 L 818.14808,445.6404 L 804.59766,445.6404 L 804.59766,136.2133 zM 824.92328,136.2133 L 838.4737,136.2133 L 838.4737,445.6404 L 824.92328,445.6404 L 824.92328,136.2133 zM 852.02417,136.2133 L 858.79938,136.2133 L 858.79938,497.21156 L 852.02417,497.21156 L 852.02417,136.2133 zM 865.57458,136.2133 L 872.3498,136.2133 L 872.3498,497.21156 L 865.57458,497.21156 L 865.57458,136.2133 zM 440.87743,444.39408 L 435.31071,437.97098 L 435.31071,425.55031 C 435.31071,415.34931 435.86811,409.93647 438.42979,395.26154 C 440.14528,385.43408 441.73835,376.29188 441.96994,374.94552 C 442.35255,372.72115 441.92537,372.2623 437.29218,369.921 L 432.19334,367.34441 L 427.08278,354.26957 L 421.97222,341.19473 L 424.18809,337.93379 C 425.69329,335.7187 426.40396,333.4537 426.40396,330.87157 L 426.40396,327.07029 L 421.24597,327.07029 L 416.08799,327.07029 L 413.69682,322.3479 C 411.42774,317.86661 411.15142,317.64352 408.28441,317.97823 C 403.68712,318.51493 384.34547,307.36709 380.14323,301.75863 C 377.26208,297.91335 376.84172,297.678 372.85476,297.678 L 368.62377,297.678 L 357.36175,282.91002 L 346.09972,268.14203 L 346.35289,260.14475 C 346.60593,252.15161 346.60423,252.14471 343.08459,246.82077 C 339.7846,241.8291 339.38045,241.52091 336.65876,241.92068 C 333.99715,242.31162 333.59946,242.04357 331.90066,238.71367 L 330.04694,235.08006 L 331.96119,235.58065 C 334.55732,236.25956 334.1373,235.53488 328.29116,229.24864 C 323.27983,223.86006 323.21605,223.82567 315.88681,222.55994 L 308.5197,221.28767 L 291.18155,229.64521 C 281.64556,234.24186 273.74029,238.00276 273.61427,238.00276 C 273.48825,238.00276 275.85027,235.5916 278.8632,232.64464 L 284.34125,227.28653 L 281.54151,224.72596 C 280.00165,223.31765 278.03382,221.7692 277.16854,221.28498 C 275.94949,220.60276 275.12089,217.44464 273.4879,207.25667 C 272.32881,200.02532 271.49101,194.06262 271.62613,194.00622 C 271.76124,193.94984 275.14658,192.25379 279.14909,190.23725 L 286.4264,186.57082 L 306.76003,188.68445 C 317.94352,189.84694 334.10773,191.5467 342.68048,192.46169 C 351.25323,193.37669 358.38407,194.02788 358.52679,193.90877 C 358.66953,193.78967 355.9641,191.60004 352.51474,189.04293 C 349.06538,186.48581 346.24318,184.01293 346.24318,183.54764 C 346.24318,183.08234 346.88514,180.146 347.66976,177.02243 C 348.83954,172.36549 349.52093,171.1726 351.45513,170.39545 C 352.75247,169.87419 360.22678,167.01382 368.06472,164.03908 C 375.90267,161.06434 390.73241,155.39435 401.01971,151.43912 C 411.30701,147.48388 420.7259,144.08969 421.95058,143.89648 C 423.17526,143.70326 429.94925,143.85613 437.0039,144.23618 L 449.83052,144.92719 L 437.67191,158.55342 C 430.98466,166.04785 425.51328,172.47809 425.51328,172.84284 C 425.51328,173.20759 432.72775,179.42804 441.54544,186.66607 C 450.36312,193.90409 457.57759,200.11172 457.57759,200.4608 C 457.57759,200.80989 455.27297,203.37521 452.45621,206.16153 L 447.33482,211.22756 L 437.98273,209.61548 C 427.48041,207.80513 428.08612,208.53158 429.53261,199.48105 L 430.20879,195.25035 L 426.92491,195.25035 C 423.97239,195.25035 423.50005,195.58737 422.24381,198.59038 C 420.66709,202.35949 420.52114,204.24199 421.48701,208.3518 L 422.15885,211.21048 L 414.69974,210.68409 L 407.24065,210.15769 L 403.36516,215.3399 L 399.48966,220.52212 L 402.44377,222.93314 C 404.06852,224.25919 407.68504,225.98004 410.48047,226.75724 C 414.8441,227.97044 416.22275,228.92877 420.22642,233.53188 C 422.79125,236.48074 425.16699,238.89343 425.50583,238.89343 C 425.84468,238.89343 426.85392,236.47579 427.7486,233.52089 C 428.98903,229.42399 429.12825,227.90133 428.33495,227.10803 C 427.20568,225.97876 426.86764,214.84509 427.96264,214.84538 C 429.10367,214.84567 450.7991,218.45215 450.90041,218.65837 C 450.95307,218.76554 454.86632,223.51626 459.59653,229.2155 C 464.32674,234.91474 468.31259,240.02447 468.45397,240.57044 C 468.59535,241.11641 462.89938,244.91408 455.79624,249.00969 L 442.88145,256.45627 L 442.61386,260.49451 C 442.37879,264.04213 442.12906,264.47595 440.55839,264.06521 C 439.38239,263.75769 437.90608,264.42583 436.24483,266.0174 C 434.16825,268.00689 433.78334,269.01755 434.08008,271.70146 C 434.41955,274.77199 434.12613,275.21864 429.13761,279.2249 L 423.83423,283.48402 L 425.10946,287.68632 C 426.79031,293.22533 426.7901,293.22636 423.9546,293.2136 C 422.14175,293.20544 420.98233,292.39534 419.49304,290.09624 L 417.48082,286.9899 L 408.80493,287.00472 L 400.12903,287.01955 L 397.18663,292.47982 L 394.24422,297.94008 L 397.13868,300.9264 C 400.48844,304.38248 403.18984,304.70852 406.85454,302.09902 C 409.03407,300.54706 409.67447,300.45066 411.29202,301.43101 C 412.9332,302.42569 413.11129,303.12847 412.64306,306.76243 L 412.10374,310.94815 L 415.14162,311.51805 C 418.00012,312.05431 418.21376,312.34622 418.7597,316.46177 L 419.33991,320.83556 L 425.07322,320.83556 C 429.2401,320.83556 432.17126,320.23202 435.80153,318.62653 C 440.5501,316.5265 440.95782,316.48556 444.06568,317.79675 C 445.86371,318.55533 450.84186,319.40832 455.12823,319.69228 L 462.92164,320.20856 L 462.92164,324.5301 L 462.92164,328.85164 L 468.73898,328.85164 C 472.6275,328.85164 474.663,329.22079 474.87803,329.96498 C 475.05496,330.57732 475.54339,333.08235 475.96342,335.5317 C 476.7076,339.87131 476.79963,339.97783 479.56589,339.70115 C 481.12721,339.54499 483.32091,339.90758 484.44077,340.50691 C 488.32236,342.58427 503.8927,352.97318 503.8927,353.4857 C 503.8927,353.76896 502.731,355.32383 501.31114,356.94096 C 499.7719,358.69406 498.51324,361.34875 498.19377,363.51594 C 497.89908,365.51505 497.43509,368.67847 497.16266,370.54577 C 496.5816,374.52874 499.11931,371.6212 458.69213,414.6227 C 451.75486,422.00171 450.59498,423.64714 451.34406,425.0468 C 453.27231,428.64976 452.39902,432.69676 448.97584,436.02169 L 445.71814,439.18588 L 448.55215,442.41364 L 451.38617,445.64141 L 449.3605,448.2085 C 448.24638,449.6204 447.13442,450.78495 446.88949,450.79638 C 446.64455,450.80781 443.93912,447.92678 440.87743,444.39408 z M 853.95942,431.33785 C 853.45232,430.39031 853.05279,428.28609 853.07158,426.6618 C 853.0997,424.2316 854.27873,422.46914 859.72881,416.71044 L 866.35187,409.71232 L 863.59962,405.71207 C 861.25207,402.30001 860.99069,401.39729 861.82202,399.57272 C 863.15639,396.6441 864.00721,396.8711 866.647,400.86009 C 868.47911,403.62858 869.02335,405.80924 869.48129,412.2162 L 870.04807,420.14585 L 864.58927,426.60325 C 858.80914,433.44077 855.80176,434.78027 853.95942,431.33785 z M 813.88698,412.81285 C 810.56633,412.51325 808.23911,411.20939 799.63618,404.82866 C 790.52093,398.06797 789.32185,397.41766 789.06971,399.09798 C 788.90914,400.16803 787.93952,401.19846 786.84302,401.4643 C 781.81515,402.6833 764.38338,406.0528 764.13402,405.85386 C 763.85412,405.63057 765.40095,399.38284 766.34564,396.92102 C 766.67786,396.05525 765.92715,395.31045 764.06962,394.66291 C 761.30923,393.70064 761.29786,393.67003 761.29786,387.19716 L 761.29786,380.69763 L 777.41231,370.36145 C 786.27525,364.67656 793.79032,360.02629 794.11247,360.02753 C 794.43461,360.02877 797.70421,362.03178 801.37825,364.47865 C 805.05228,366.92552 808.33587,368.92853 808.67511,368.92976 C 809.01435,368.93101 809.41515,367.22861 809.56578,365.14666 C 809.80583,361.82899 810.12273,361.32835 812.13069,361.09473 C 814.18653,360.85554 815.35232,362.22993 823.4868,374.48293 C 828.4726,381.99304 832.5425,388.72625 832.53102,389.44562 C 832.49425,391.75168 820.43772,413.01761 819.12282,413.0957 C 818.42593,413.13709 816.06979,413.00981 813.88698,412.81285 z M 601.11698,402.84662 L 595.46827,402.33235 L 589.3298,385.40952 C 585.95366,376.10196 583.18493,368.1491 583.17707,367.7365 C 583.16923,367.32389 583.96441,365.96723 584.94416,364.72169 C 586.21737,363.10306 586.72551,361.10841 586.72551,357.72921 C 586.72551,353.22886 586.46645,352.7011 581.34222,346.76212 L 575.95894,340.5229 L 578.29,338.99552 L 580.62106,337.46816 L 575.43454,334.187 C 570.41543,331.01176 569.90645,330.88792 559.6666,330.35053 C 548.2309,329.75037 548.20734,329.74148 540.93006,323.26733 L 536.551,319.37156 L 536.24487,307.41144 L 535.93875,295.45131 L 549.45243,283.96987 L 562.96611,272.48841 L 570.58358,271.71631 C 577.51884,271.01336 578.3553,271.09844 579.92314,272.66627 C 580.87028,273.61342 581.68607,275.48608 581.73601,276.82775 C 581.81406,278.92527 582.45092,279.48657 586.28017,280.8328 C 592.41905,282.99103 593.82134,282.89813 596.69737,280.14271 L 599.19598,277.7489 L 601.64482,279.55261 C 603.48786,280.91011 606.09792,281.4975 612.19543,281.92699 C 619.86359,282.46711 620.39984,282.38837 622.21552,280.45567 C 623.54874,279.03652 624.13387,277.27658 624.13387,274.68571 C 624.13387,272.63533 623.83326,270.96722 623.46586,270.9788 C 623.09846,270.99038 621.61876,272.59359 620.17764,274.5415 C 618.73653,276.48941 617.26764,278.08315 616.91347,278.08315 C 616.55929,278.08315 614.76298,275.97893 612.92167,273.4071 C 607.89347,266.38403 607.85729,266.37754 608.55681,272.62396 C 608.9063,275.7448 608.84668,278.14963 608.42432,277.96801 C 608.00195,277.7864 606.17743,276.6375 604.36982,275.4149 C 601.54658,273.50537 600.99736,272.5674 600.47391,268.76146 C 599.97335,265.12196 598.9836,263.29251 594.93048,258.51491 C 592.21673,255.31611 589.59445,252.6989 589.10318,252.6989 C 587.06839,252.6989 587.80502,254.86762 591.53213,259.84987 C 595.68534,265.40172 595.69527,265.5659 592.14966,270.06192 L 590.39772,272.28347 L 589.24768,267.98356 C 588.31674,264.5029 587.30781,263.10388 583.9522,260.64063 C 579.09579,257.0757 578.63332,257.0026 576.41858,259.44986 C 575.23255,260.76041 574.05684,261.16501 572.39842,260.83332 C 570.40808,260.43525 568.8383,261.49941 561.99202,267.88783 C 557.55766,272.02564 553.73127,275.41112 553.48893,275.41112 C 553.08744,275.41112 547.53579,260.78048 547.53579,259.7224 C 547.53579,259.47263 550.2232,259.39339 553.50782,259.54629 C 559.25828,259.81399 559.51113,259.73731 560.32303,257.47957 C 560.99444,255.6125 560.77771,254.58923 559.25919,252.45666 L 557.35218,249.77851 L 560.51446,247.36652 C 562.2537,246.03993 564.95486,244.58909 566.51704,244.14242 C 568.0792,243.69577 571.28765,241.56175 573.64693,239.40017 L 577.93653,235.47002 L 576.51513,232.72133 C 575.12976,230.04234 575.15019,229.94691 577.32071,228.95796 C 579.23574,228.08541 579.76972,228.21692 581.13258,229.89676 C 582.57369,231.67304 583.4008,231.82632 590.25045,231.58647 C 597.36293,231.33742 597.81136,231.20382 598.28373,229.19326 C 598.68866,227.46968 600.30213,226.48586 606.74911,224.03144 C 611.1299,222.36363 614.89395,220.81932 615.11364,220.59962 C 615.33334,220.37993 614.80241,219.41489 613.93381,218.4551 C 612.36646,216.72319 612.31999,216.72315 607.77877,218.44919 C 605.2621,219.40573 602.89591,220.18856 602.52058,220.18881 C 602.14525,220.18905 601.17472,218.79798 600.36383,217.09754 C 598.76172,213.73788 598.62045,213.96879 605.37615,208.90492 C 606.60652,207.98268 606.52129,207.6032 604.63221,205.59234 C 603.45879,204.34329 602.14778,203.53822 601.71885,203.80331 C 601.28992,204.0684 598.93723,206.92954 596.49066,210.16138 C 592.05214,216.02453 592.0462,216.04153 593.78276,217.89069 C 595.14978,219.34633 595.41643,220.53909 595.02567,223.45042 C 594.55568,226.95213 594.31546,227.21048 590.67778,228.12646 C 585.2566,229.49153 584.96314,229.41629 583.90849,226.39092 L 582.96549,223.68582 L 577.58053,224.29506 L 572.19558,224.9043 L 572.73869,220.31862 C 573.21573,216.2907 574.31681,214.33632 581.7914,204.25035 L 590.30099,192.76777 L 599.86936,190.4776 L 609.43773,188.18744 L 623.24319,191.37619 C 630.8362,193.13 637.20751,194.71101 637.40167,194.88954 C 637.59582,195.06807 636.65685,196.87307 635.31506,198.90064 L 632.87544,202.58715 L 627.61399,201.99188 C 624.72017,201.66449 622.35252,201.7387 622.35252,202.1568 C 622.35252,203.23488 628.03464,208.61047 629.17419,208.61047 C 629.69531,208.61047 635.02363,205.4163 641.01492,201.5123 C 647.0062,197.6083 652.172,194.44933 652.49448,194.49237 C 652.81697,194.53541 655.82589,194.52315 659.181,194.46514 L 665.28119,194.35967 L 660.59998,188.95609 L 655.91877,183.5525 L 661.83035,177.59998 C 666.72259,172.67386 669.00437,171.13505 675.06321,168.67582 C 681.97108,165.87198 682.44984,165.79358 683.54213,167.28737 C 685.44075,169.88389 684.90053,170.86081 680.91442,172.03921 C 673.68047,174.17778 669.09302,176.77456 665.62113,180.69619 C 662.64489,184.05795 662.31609,184.81224 663.39444,185.80451 C 665.18172,187.44914 678.46506,195.31372 678.46506,194.72727 C 678.46506,194.46068 678.02991,193.42948 677.49807,192.43573 C 676.42362,190.4281 677.89495,188.39285 683.84513,183.65592 L 686.99851,181.14551 L 695.42391,183.29082 C 700.05788,184.47073 704.35679,185.4399 704.97706,185.44452 C 705.59733,185.44914 706.72766,184.1503 707.48891,182.55822 C 708.77439,179.86974 710.09653,179.20815 726.04864,173.27112 L 743.22428,166.8787 L 754.04242,169.23636 C 759.9924,170.53307 764.86056,171.87431 764.86056,172.21688 C 764.86056,172.55945 761.36563,174.84635 757.09405,177.29887 C 750.34193,181.1756 749.61486,181.81887 751.52733,182.22398 C 752.73722,182.48025 764.87436,183.773 778.49875,185.09674 L 803.27038,187.50353 L 807.64785,183.19188 C 810.05545,180.82049 812.16534,179.05649 812.33649,179.27189 C 812.50765,179.48729 813.552,181.16722 814.65727,183.00506 C 816.95929,186.83281 816.88474,186.81048 831.37654,188.01468 C 839.5009,188.68977 843.19149,189.40945 846.07268,190.88047 C 849.74484,192.75532 850.32568,192.79792 858.8268,191.81581 C 863.72552,191.24989 868.43496,190.78912 869.29224,190.79191 C 870.71105,190.79651 870.85092,192.06623 870.85092,204.94144 L 870.85092,219.08592 L 860.60815,220.18925 L 850.36539,221.29259 L 850.36539,225.20776 C 850.36539,228.65428 849.64669,230.08246 844.36136,237.13866 C 837.59427,246.17311 837.71939,246.205 836.46599,235.12647 C 835.90475,230.16571 835.99197,229.87445 839.21747,225.93814 C 841.04958,223.7023 842.40354,221.73255 842.22627,221.56092 C 842.04901,221.3893 836.56649,221.80833 830.04289,222.49211 C 818.95179,223.65464 817.71164,223.98162 810.93932,227.52902 C 805.3738,230.44428 803.51004,231.90272 802.8901,233.82772 C 802.4464,235.20548 802.31016,236.55954 802.58737,236.83674 C 802.86456,237.11394 804.95908,236.87044 807.24186,236.29563 C 809.52463,235.72082 811.49527,235.36877 811.62104,235.51329 C 811.74681,235.65782 812.13306,238.8823 812.47937,242.6788 L 813.10901,249.58154 L 809.884,249.58154 C 806.91734,249.58154 806.52343,249.8978 804.96665,253.5296 C 803.57567,256.77465 802.07364,258.24169 796.53143,261.76834 C 791.67426,264.85909 789.94664,266.43266 790.35388,267.39504 C 792.10578,271.53512 791.77721,272.5184 787.7058,275.3196 L 783.66171,278.102 L 782.11455,273.19386 C 781.26362,270.49438 780.21989,268.28572 779.79516,268.28572 C 779.37042,268.28572 777.82561,268.90487 776.36224,269.66161 C 774.05938,270.85246 773.76009,271.42142 774.13678,273.89231 C 774.37616,275.46247 774.80746,280.19 775.09523,284.39795 L 775.61845,292.04877 L 764.22745,298.57119 C 747.92164,307.90781 749.24361,306.34784 752.96033,311.86684 C 756.55418,317.20341 756.57262,317.15355 749.52265,321.1616 L 745.31818,323.55192 L 743.06455,319.1046 C 741.45446,315.92724 740.42204,314.80651 739.44907,315.17987 C 738.70005,315.4673 738.2757,316.35641 738.50609,317.15566 C 738.73646,317.95493 739.34154,320.21209 739.8507,322.17157 C 740.57907,324.97464 741.63487,326.27396 744.80243,328.26541 C 747.01672,329.65755 748.82841,331.11149 748.82841,331.49639 C 748.82841,333.15451 746.25229,334.17034 743.46237,333.61235 C 740.90555,333.10099 740.59246,333.2287 741.10818,334.57264 C 741.43533,335.4252 741.703,336.46536 741.703,336.88413 C 741.703,337.3029 742.97356,337.77112 744.52647,337.92463 C 747.04695,338.17377 747.50773,338.68161 748.82044,342.6571 C 750.27419,347.05977 750.37136,347.14287 757.35308,349.9548 C 763.21,352.31371 764.46154,353.1693 764.68664,354.96825 L 764.95806,357.13738 L 757.56124,355.85882 L 750.16442,354.58025 L 740.95671,345.05598 C 735.89247,339.81762 730.95533,334.42949 729.98529,333.08235 L 728.22157,330.63299 L 731.84493,330.63299 C 733.83777,330.63299 735.46828,330.27153 735.46828,329.82975 C 735.46828,329.38798 732.66265,322.93576 729.23355,315.49151 C 724.89222,306.06689 722.99882,300.90112 722.99882,298.48124 C 722.99882,295.62252 722.68889,295.00598 721.2518,295.00598 C 719.97378,295.00598 719.25287,295.94154 718.56637,298.49099 C 717.81286,301.2893 716.40206,302.91092 711.40663,306.72057 L 705.18532,311.46515 L 705.18532,316.08335 L 705.18532,320.70157 L 700.51876,322.06953 C 697.95215,322.82191 695.58373,323.15266 695.25562,322.80453 C 694.92749,322.4564 693.47584,318.76474 692.02971,314.60083 C 689.94518,308.59868 688.89907,306.78246 686.98074,305.83491 C 684.71928,304.71787 684.58018,304.31651 684.85311,299.6963 L 685.14512,294.75286 L 669.11297,291.78854 C 660.29528,290.15817 652.15635,288.81229 651.02644,288.79773 C 649.01592,288.77181 649.00369,288.82481 650.45369,291.27944 C 654.14137,297.52219 654.81657,298.02341 658.02967,296.90331 C 660.83834,295.9242 661.17044,296.04181 664.34184,299.1386 L 667.68938,302.40738 L 664.39313,306.6788 C 661.52693,310.39296 660.13217,311.30455 653.70227,313.6662 C 649.63522,315.15999 645.94742,316.38218 645.50717,316.38218 C 645.06691,316.38218 641.04889,309.36812 636.57822,300.79537 C 628.87082,286.01596 628.3149,285.20855 625.84648,285.20855 C 623.47876,285.20855 623.24319,285.48306 623.24319,288.24222 C 623.24319,290.11764 625.28937,295.54742 628.60253,302.4639 C 633.18658,312.03343 634.5681,314.1148 638.15256,316.85174 C 642.07014,319.84304 642.72215,320.03928 648.15737,319.863 C 651.35513,319.75928 654.02571,320.03588 654.09197,320.47766 C 654.15825,320.91944 652.82352,323.28492 651.12592,325.73427 C 633.62078,350.99139 632.22875,353.29203 633.56105,354.7642 C 634.27819,355.55663 635.10671,358.79406 635.40221,361.95849 L 635.93948,367.71201 L 632.26336,370.62354 C 629.00365,373.20528 628.58724,373.95788 628.58724,377.26757 C 628.58724,380.6963 627.82419,381.92241 619.21075,392.33421 C 613.24022,399.55128 609.27693,403.61252 608.29998,403.51463 C 607.45612,403.43008 604.22377,403.12948 601.11698,402.84662 z M 658.35579,272.76536 L 660.62937,271.90094 L 658.41377,267.73399 C 655.72184,262.67116 655.69655,262.03826 658.06578,259.02627 C 659.54592,257.14457 659.71376,256.38736 658.87478,255.37644 C 657.96,254.27419 657.51902,254.29559 655.62917,255.53387 C 653.54373,256.9003 653.44938,257.35377 653.59747,265.2983 C 653.76329,274.19403 653.9261,274.44952 658.35579,272.76536 z M 616.11268,262.80461 C 618.50135,261.03859 619.41822,260.92951 627.65539,261.43134 C 632.57676,261.73116 636.60332,261.78487 636.60332,261.55069 C 636.60332,260.73125 631.87443,253.58342 630.90345,252.93521 C 630.36435,252.5753 628.99444,252.2747 627.85922,252.2672 C 626.2435,252.25653 625.91037,252.6165 626.32552,253.92451 C 626.71425,255.14931 626.31412,255.74401 624.82685,256.1519 C 623.29781,256.57124 622.21144,256.06548 620.418,254.09935 L 618.03814,251.49035 L 614.85128,255.58082 C 611.87884,259.39608 610.86553,262.73657 612.2582,264.12923 C 613.10509,264.97612 613.23676,264.93087 616.11268,262.80461 z M 673.79708,260.26203 C 674.10087,257.34028 672.8959,255.61677 671.04578,256.32673 C 669.55425,256.89908 668.94891,261.14469 670.18288,262.37867 C 671.45567,263.65146 673.57362,262.41108 673.79708,260.26203 z M 336.00519,387.27468 C 333.36606,385.16314 333.35577,385.12094 335.02989,383.27106 C 337.18658,380.88794 338.0672,380.92609 341.33969,383.54435 C 343.97883,385.6559 343.98911,385.6981 342.31499,387.54798 C 340.1583,389.93109 339.27768,389.89295 336.00519,387.27468 z M 641.27937,382.20364 C 637.06469,379.21846 637.09651,379.31549 638.50219,373.73301 C 639.31271,370.51414 640.47104,368.94656 644.41004,365.73788 C 648.91435,362.0687 649.46183,361.84767 651.19525,362.99862 C 652.23231,363.6872 653.06878,364.4021 653.05407,364.58728 C 652.84562,367.21131 646.70003,384.95348 646.00962,384.92447 C 645.48993,384.90263 643.36132,383.67825 641.27937,382.20364 z M 323.3426,379.31339 C 321.76939,378.25741 320.46678,377.12359 320.44791,376.79378 C 320.38149,375.63291 325.0385,370.71426 325.77378,371.16868 C 326.18322,371.42173 327.76801,373.20677 329.29554,375.13543 L 332.07287,378.64209 L 329.40482,380.02178 C 326.28243,381.63644 326.9134,381.71017 323.3426,379.31339 z M 813.8477,355.51623 C 809.6838,354.58847 803.39728,353.19793 799.87768,352.42613 L 793.4784,351.02287 L 792.86723,346.13125 C 792.53109,343.44086 792.49108,341.00462 792.77832,340.71737 C 793.2678,340.22789 806.78725,343.33659 817.11871,346.31427 C 821.43093,347.55712 821.81563,347.90594 823.13077,351.76566 C 825.36665,358.32761 825.75725,358.1698 813.8477,355.51623 z M 774.45242,347.94403 C 774.17606,347.66768 774.99118,345.02841 776.26379,342.079 C 778.47734,336.94884 778.69252,336.73941 781.2289,337.24669 C 782.68711,337.53833 784.02083,337.91759 784.19272,338.08948 C 784.36461,338.26137 783.20718,340.66202 781.62063,343.42425 C 779.54189,347.04342 778.20784,348.44649 776.84544,348.44649 C 775.80563,348.44649 774.72877,348.22039 774.45242,347.94403 z M 760.07748,346.09961 L 755.73974,344.76747 L 756.32804,340.33267 C 756.83239,336.53071 757.55957,335.26804 761.42402,331.48408 C 763.90323,329.05649 766.19169,327.07106 766.50947,327.07201 C 766.82724,327.07296 768.46611,329.0968 770.1514,331.56943 L 773.21554,336.06512 L 770.38238,341.81047 C 767.26582,348.13052 767.0216,348.23217 760.07748,346.09961 z M 445.88142,309.555 C 438.58359,306.88583 437.36891,306.16382 437.74655,304.71968 C 437.99072,303.78599 438.36035,303.02205 438.56795,303.02205 C 440.21214,303.02205 458.31396,311.45792 457.94629,312.05281 C 457.16382,313.31888 454.87901,312.84586 445.88142,309.555 z M 293.248,306.97285 C 288.05893,303.51332 287.61909,303.44029 283.57822,305.36725 L 280.52808,306.82176 L 272.41456,302.13917 C 264.42937,297.53064 263.58507,296.62384 265.08143,294.26327 C 265.67992,293.31914 267.76876,293.83147 275.2557,296.75872 L 284.67686,300.44221 L 288.3066,298.59046 L 291.93632,296.73871 L 296.37753,300.89294 C 298.8202,303.17776 300.80983,305.29292 300.79893,305.59329 C 300.78804,305.89366 300.08663,306.99497 299.24025,308.04065 L 297.70138,309.94189 L 293.248,306.97285 z M 425.51328,303.73865 C 420.49138,302.64357 419.77329,301.95916 420.73703,299.18639 L 421.50524,296.9762 L 427.07196,298.69542 C 432.67318,300.42529 433.08846,300.81356 432.09805,303.39454 C 431.49603,304.96341 431.20068,304.97884 425.51328,303.73865 z M 809.4808,292.41743 C 808.4535,289.03526 807.61298,285.84183 807.61298,285.32091 C 807.61298,283.30918 810.25328,285.54062 813.29689,290.12462 L 816.47739,294.91482 L 813.91301,296.74083 L 811.34862,298.56683 L 809.4808,292.41743 z M 434.19736,295.38721 C 432.54588,294.49126 431.74801,293.34234 431.74801,291.86017 C 431.74801,290.65114 431.89515,289.66193 432.07498,289.66193 C 432.25483,289.66193 433.46292,291.26514 434.75965,293.22463 C 436.05637,295.18411 437.01144,296.77128 436.88203,296.75166 C 436.7526,296.73205 435.54451,296.11805 434.19736,295.38721 z M 248.29977,288.18827 C 247.29117,285.90815 246.59933,283.9092 246.76237,283.74617 C 247.03264,283.47589 257.30135,286.84397 257.86177,287.38671 C 258.13265,287.64905 251.21463,292.33395 250.55637,292.33395 C 250.32385,292.33395 249.30838,290.4684 248.29977,288.18827 z M 790.81573,282.22487 C 788.47509,279.73337 788.42227,279.79006 797.88229,274.64051 L 804.62911,270.96789 L 807.15186,263.61474 C 808.53937,259.57051 809.79357,256.11298 809.93897,255.93131 C 810.27007,255.51766 818.30353,260.55235 818.28246,261.16032 C 818.27398,261.40525 816.16773,265.01249 813.60191,269.17639 C 809.14131,276.41521 808.62464,276.91176 801.81749,280.50194 C 797.90187,282.5671 794.26704,284.27052 793.74009,284.28731 C 793.21315,284.30412 791.89719,283.37602 790.81573,282.22487 z M 584.06712,270.73508 C 584.07462,270.12274 584.45387,269.03176 584.90988,268.31068 C 585.60456,267.21221 585.84125,267.28443 586.36959,268.75602 C 586.71641,269.72203 587.16244,270.81301 587.36074,271.18041 C 587.55905,271.54782 586.89605,271.84842 585.8874,271.84842 C 584.87874,271.84842 584.05962,271.34741 584.06712,270.73508 z M 821.84591,254.45872 C 820.4911,252.82628 820.27767,253.04103 826.22454,250.05311 C 830.39582,247.95733 831.30757,247.78659 833.12727,248.76046 C 834.28043,249.37761 835.22391,250.18624 835.22391,250.55742 C 835.22391,251.34148 825.75158,255.81626 824.09189,255.81626 C 823.47627,255.81626 822.46557,255.20538 821.84591,254.45872 z M 545.50405,241.1174 L 543.02695,238.93117 L 544.94165,235.17807 L 546.85634,231.42496 L 549.3988,234.49119 C 552.48241,238.21006 552.48477,238.23649 549.98515,241.04886 L 547.98113,243.30363 L 545.50405,241.1174 z M 555.59496,241.73005 C 555.13465,241.57563 555.52996,240.17995 556.47344,238.62853 L 558.18884,235.80777 L 554.62056,232.17197 L 551.0523,228.53616 L 553.26618,225.95971 C 555.74761,223.0719 555.63462,223.03797 557.7793,227.31466 C 558.63912,229.02921 560.69411,231.56341 562.34595,232.94622 C 564.65225,234.8769 565.3493,236.14894 565.3493,238.42698 C 565.3493,241.35244 565.28752,241.39781 560.89061,241.70217 C 558.43832,241.87191 556.05528,241.88446 555.59496,241.73005 z M 484.27067,218.64342 L 480.23544,218.32627 L 474.73692,209.66517 C 469.48414,201.39114 469.1372,200.48738 466.97414,189.44312 C 465.7288,183.0846 464.70834,177.79496 464.70644,177.68836 C 464.70454,177.58176 462.55809,175.87513 459.93653,173.89584 L 455.17009,170.29713 L 451.36314,171.6403 C 449.26933,172.37904 446.90518,172.98073 446.1095,172.97738 C 444.07049,172.9688 440.18856,167.07593 441.27547,165.63919 C 446.34831,158.93362 457.05679,146.26321 457.6512,146.26321 C 458.07104,146.26321 466.1421,145.29257 475.5869,144.10624 C 485.0317,142.9199 500.06364,141.0753 508.99122,140.0071 L 525.22317,138.06494 L 533.21112,144.61343 C 537.60449,148.2151 541.20208,151.36232 541.20575,151.60726 C 541.20942,151.85219 539.25658,153.6485 536.86613,155.59905 L 532.51984,159.14551 L 531.98608,166.73249 C 531.24273,177.29879 530.83447,178.4148 523.63973,189.54818 L 517.2554,199.4275 L 506.41564,202.6849 C 500.45377,204.47648 495.51907,206.04164 495.44962,206.16304 C 495.38018,206.28445 494.1291,209.16139 492.66945,212.55625 C 491.20979,215.95109 489.63086,218.78087 489.1607,218.84464 C 488.69055,218.90841 486.49004,218.81786 484.27067,218.64342 z M 234.90877,204.60244 C 234.90877,197.00943 235.06794,190.79697 235.26248,190.79697 C 235.45703,190.79697 242.17049,193.40313 250.18129,196.58843 C 260.68729,200.76589 265.30365,203.06192 266.74598,204.82718 C 267.84576,206.17319 268.74757,207.62656 268.75,208.05691 C 268.75251,208.49831 264.10591,208.56192 258.08959,208.20283 C 250.76139,207.76545 246.44217,207.89058 244.28412,208.6028 C 242.55678,209.17287 241.1435,209.83121 241.1435,210.06577 C 241.1435,210.30033 242.42346,211.6613 243.98786,213.09017 C 245.55226,214.51903 246.65447,215.85186 246.43722,216.05202 C 246.00602,216.44929 237.12563,218.4079 235.75561,218.4079 C 235.25669,218.4079 234.90877,212.73583 234.90877,204.60244 z M 527.07932,210.77984 C 524.94108,207.62669 523.3584,204.90649 523.56225,204.73494 C 524.13571,204.25241 535.71602,201.48507 537.16182,201.48507 C 538.49914,201.48507 543.97309,205.87644 543.97309,206.94929 C 543.97309,207.4639 534.96017,214.20049 531.90335,215.97065 C 531.38838,216.26886 529.21757,213.93299 527.07932,210.77984 z"
         style="fill:#000000"
         id="barcode_bar1" />
    </g>
    <text
       x="677.57269"
       y="426.76645"
       style="font-size:75.23544312px;text-align:center;text-anchor:middle;fill:#000000"
       xml:space="preserve"
       id="barcode_bottomtext"
       transform="scale(0.8104811,1.233835)">9    780000    000002       </text>
  </g>
</svg>
